<svg width="412" height="412" viewBox="0 0 412 412" fill="none" xmlns="http://www.w3.org/2000/svg">
<path d="M0.5 206C0.5 92.4778 92.4778 0.5 206 0.5C319.522 0.5 411.5 92.4778 411.5 206C411.5 319.522 319.522 411.5 206 411.5C92.4778 411.5 0.5 319.522 0.5 206Z" fill="#fff" stroke="#fff"/>
<path d="M210.857 66.0714C135.124 66.0714 73.7143 125.37 73.7143 198.5H28L88.9521 257.357L149.905 198.5H104.191C104.191 141.629 151.962 95.5002 210.857 95.5002C269.752 95.5002 317.524 141.629 317.524 198.5C317.524 255.37 269.752 301.5 210.857 301.5C187.771 301.5 166.514 294.363 148.991 282.298L127.429 303.413C150.591 320.629 179.466 330.929 210.857 330.929C286.591 330.929 348 271.63 348 198.5C348 125.37 286.591 66.0714 210.857 66.0714Z" fill="#f9c2c2"/>
</svg>
